<svg xmlns="http://www.w3.org/2000/svg"
shape-rendering="geometricPrecision"
width="4000" height="4000" viewBox="0 0 536 536">
  <metadata>null</metadata>

<path d="
M 24.454 289.877
C 25.373 289.076 28.362 289.582 29.575 289.574
C 34.039 289.542 38.503 289.529 42.967 289.522
C 60.933 289.496 78.917 289.219 96.882 289.585
C 96.304 293.476 96.396 298.404 96.749 302.324
C 86.96 302.069 76.821 301.73 67.055 302.438
C 66.55 304.671 66.874 307.219 66.873 309.504
C 66.872 314.004 66.887 318.505 66.879 323.005
C 66.857 335.95 66.311 349.028 66.816 361.958
C 62.361 362.503 57.734 361.961 53.251 362.089
C 52.815 360.034 53.118 357.603 53.128 355.501
C 53.147 351.502 53.147 347.503 53.136 343.505
C 53.1 329.893 53.349 316.243 53.065 302.641
C 52.601 302.223 51.618 302.384 51.003 302.359
C 49.17 302.285 47.332 302.304 45.498 302.303
C 38.562 302.302 31.469 302.715 24.551 302.236
C 24.243 298.137 24.44 293.987 24.454 289.877 Z"
opacity="1" fill="rgb(61,136,70)" fill-rule="evenodd" />
<path d="
M 86.304 317.774
C 89.84 317.245 93.642 317.454 97.205 317.64
C 97.876 318.593 97.573 320.826 97.464 321.968
C 99.451 320.937 100.81 319.237 103.05 318.409
C 109.129 316.162 116.415 317.348 122.762 317.636
C 122.756 320.585 123.326 325.589 121.866 328.205
C 120.578 329.009 118.138 328.462 116.68 328.392
C 112.974 328.215 108.796 327.755 105.25 329.081
C 96.007 332.538 98.696 345.804 98.719 353.5
C 98.727 356.403 98.477 359.434 98.726 362.321
C 94.678 362.289 90.575 362.068 86.532 362.299
C 86.044 361.586 86.354 359.877 86.328 358.995
C 86.245 356.165 86.274 353.331 86.27 350.5
C 86.254 339.591 86.275 328.683 86.304 317.774 Z"
opacity="1" fill="rgb(62,135,71)" fill-rule="evenodd" />
<path d="
M 88.949 383.597
C 90.206 378.278 96.06 375.159 101.095 377.803
C 102.593 378.59 105.294 380.516 105.337 382.394
C 104.593 382.913 102.604 382.835 101.746 382.55
C 100.646 381.547 99.601 380.081 98.004 379.952
C 92.917 379.543 90.415 385.401 93.74 389.06
C 95.686 391.2 102.245 391.689 102.003 387.42
C 100.389 387.211 98.689 387.401 97.064 387.39
C 96.371 386.759 96.579 385.571 96.482 384.706
C 97.632 383.994 98.886 384.531 100.137 384.615
C 101.296 384.692 102.398 384.47 103.513 384.196
C 104.268 384.01 105.016 383.909 105.712 384.281
C 105.432 387.197 105.273 390.118 102.656 392.055
C 96.215 396.824 87.811 391.21 88.949 383.597 Z"
opacity="1" fill="rgb(72,74,80)" fill-rule="evenodd" />
<path d="
M 109.281 377.267
C 110.46 377.261 111.64 377.139 112.827 377.125
C 112.929 381.629 112.839 386.142 112.911 390.649
C 113.232 390.984 114.063 390.715 114.501 390.698
C 116.179 390.634 118.175 390.309 119.827 390.518
C 119.817 391.412 119.86 392.65 119.428 393.436
C 116.129 393.428 112.742 393.219 109.454 393.447
C 108.873 391.875 109.226 389.664 109.237 388
C 109.261 384.428 109.407 380.837 109.281 377.267 Z"
opacity="0.996" fill="rgb(79,79,84)" fill-rule="evenodd" />
<path d="
M 122.419 382.56
C 122.813 381.406 123.47 380.275 124.333 379.412
C 130.69 373.058 142.313 380.081 139.11 388.629
C 135.437 398.435 118.884 392.91 122.419 382.56 Z
M 125.83 384.04
C 124.057 390.144 133.454 393.515 135.505 387.306
C 137.683 380.714 127.848 377.092 125.83 384.04 Z"
opacity="1" fill="rgb(80,80,84)" fill-rule="evenodd" />
<path d="
M 127.937 299.089
C 128.092 297.87 128.518 296.619 129.209 295.602
C 133.856 288.763 144.811 292.671 143.69 300.989
C 142.325 311.113 126.665 309.068 127.937 299.089 Z"
opacity="1" fill="rgb(62,142,71)" fill-rule="evenodd" />
<path d="
M 258.934 240.064
C 258.947 240.566 258.923 240.32 259.003 240.803
C 257.731 241.387 256.829 242.69 255.909 243.723
C 254.209 245.631 252.553 247.548 250.933 249.526
C 245.439 256.232 240.191 263.495 239.545 272.409
C 239.418 274.155 239.159 276.21 239.54 277.93
C 239.789 279.055 240.47 280.012 240.837 281.093
C 239.148 280.25 237.866 278.121 236.507 276.83
C 233.028 273.524 229.365 270.377 225.798 267.165
C 216.092 258.425 205.765 250.516 195.332 242.679
C 181.829 232.536 167.121 223.433 151.881 216.131
C 147.495 214.029 143.019 212.077 138.464 210.369
C 135.119 209.114 131.43 208.177 128.31 206.431
C 129.48 205.357 133.231 205.268 134.854 204.932
C 141.22 203.617 147.809 202.581 154.314 202.319
C 170.03 201.684 185.802 203.061 200.9 207.717
C 212.159 211.188 222.77 216.076 232.998 221.893
C 239.652 225.676 246.062 230.08 252.097 234.782
C 253.746 236.067 255.372 237.401 256.964 238.757
C 257.562 239.266 258.121 240.052 258.934 240.064 Z"
opacity="1" fill="rgb(76,81,86)" fill-rule="evenodd" />
<path d="
M 129.177 317.799
C 133.318 317.668 137.605 317.425 141.742 317.702
C 141.096 321.748 141.67 326.384 141.683 330.495
C 141.717 341.034 142.29 351.809 141.373 362.312
C 137.437 362.295 133.45 362.06 129.521 362.294
C 129.069 361.85 129.381 360.018 129.376 359.369
C 129.35 356.578 129.33 353.789 129.33 350.998
C 129.33 339.941 129.508 328.851 129.177 317.799 Z"
opacity="1" fill="rgb(61,136,72)" fill-rule="evenodd" />
<path d="
M 143.315 376.933
C 147.601 376.774 156.717 375.484 155.38 382.484
C 155.195 383.455 154.495 384.184 154.082 385.07
C 156.824 387.141 157.046 391.35 153.642 392.986
C 150.826 394.34 146.435 393.261 143.389 393.476
C 142.895 391.469 143.247 389.064 143.24 387.002
C 143.228 383.738 142.765 380.151 143.315 376.933 Z
M 146.881 380.425
C 146.862 381.28 146.427 383.216 146.989 383.874
C 148.52 383.786 150.375 383.992 151.804 383.361
C 152.635 382.611 152.243 381.178 151.823 380.3
C 150.555 379.518 148.137 379.74 146.881 380.425 Z
M 146.926 386.827
C 146.914 388.008 146.906 389.118 147.073 390.29
C 149.092 390.336 153.194 391.438 152.788 388.025
C 152.728 387.514 152.591 387.158 152.301 386.739
C 150.851 386.016 148.466 386.627 146.926 386.827 Z"
opacity="1" fill="rgb(83,82,84)" fill-rule="evenodd" />
<path d="
M 150.971 337.599
C 151.443 334.424 151.896 331.407 153.448 328.53
C 159.371 317.546 170.973 317.09 182.012 317.533
C 185.158 317.66 188.433 317.413 191.554 317.797
C 191.774 321.32 191.58 325.125 191.325 328.657
C 186.74 329.174 181.867 328.501 177.254 328.485
C 174.678 328.476 171.913 328.51 169.558 329.678
C 161.055 333.893 161.519 346.72 170.262 350.31
C 172.124 351.075 174.277 351.005 176.255 351.078
C 181.238 351.262 186.742 350.325 191.641 351.196
C 191.525 354.635 191.969 358.343 191.354 361.742
C 187.718 361.987 184.022 361.841 180.377 361.917
C 172.394 362.083 163.843 362.73 157.743 356.551
C 156.244 355.032 154.964 353.293 153.897 351.449
C 152.847 349.637 152.042 347.704 151.588 345.658
C 151.001 343.006 150.743 340.312 150.971 337.599 Z"
opacity="1" fill="rgb(62,133,73)" fill-rule="evenodd" />
<path d="
M 159.413 392.066
C 160.757 387.31 161.799 381.96 164.143 377.572
C 165.002 376.852 167.621 376.978 168.613 377.358
C 169.84 379.363 170.437 381.784 171.228 383.981
C 172.331 387.047 173.705 390.286 174.405 393.466
C 174.264 393.707 173.568 393.459 173.343 393.438
C 172.301 393.339 171.239 393.426 170.192 393.35
C 169.929 392.448 169.9 391.54 169.791 390.612
C 167.737 390.6 165.661 390.528 163.612 390.663
C 163.286 391.528 163.268 392.515 163.15 393.427
C 161.918 393.733 160.714 393.551 159.472 393.479
C 159.117 392.969 159.305 392.658 159.413 392.066 Z
M 164.458 387.081
C 164.183 387.927 164.082 387.61 164.332 388.073
C 165.613 388.048 167.48 388.245 168.682 387.873
C 168.588 386.076 167.782 384.268 167.38 382.516
C 167.307 382.195 167.061 380.826 166.835 380.741
C 166.596 380.651 166.526 381.149 166.372 381.353
C 165.728 383.254 165.155 385.201 164.458 387.081 Z"
opacity="1" fill="rgb(83,82,85)" fill-rule="evenodd" />
<path d="
M 177.721 377.252
C 178.534 377.26 180.823 376.841 181.389 377.423
C 181.33 380.611 181.296 383.803 181.317 386.993
C 181.324 388.024 181.003 389.978 181.507 390.845
C 183.839 390.685 186.251 390.599 188.587 390.704
C 188.694 391.616 188.991 392.75 188.832 393.65
C 185.168 393.755 181.408 393.322 177.76 393.657
C 177.223 392.188 177.705 390.061 177.735 388.502
C 177.807 384.8 178.102 380.937 177.721 377.252 Z"
opacity="1" fill="rgb(76,79,84)" fill-rule="evenodd" />
<path d="
M 199.216 285.278
C 203.2 285.119 207.237 285.038 211.226 285.117
C 211.739 285.891 211.395 287.558 211.381 288.496
C 211.332 291.664 211.363 294.834 211.36 298.002
C 211.355 305.834 211.355 313.667 211.327 321.499
C 211.312 325.741 211.751 330.306 211.028 334.499
C 214.866 330.428 218.521 326.166 222.499 322.191
C 223.797 320.894 225.36 318.634 226.997 317.801
C 227.721 317.432 228.796 317.646 229.571 317.67
C 231.713 317.737 233.86 317.729 236.004 317.756
C 237.835 317.778 239.671 317.73 241.5 317.8
C 242.039 317.821 242.82 317.57 243.275 317.917
C 242.272 319.755 239.853 321.287 238.397 322.811
C 235.432 325.912 232.467 329.012 229.515 332.125
C 228.009 333.714 226.247 335.231 225.032 337.058
C 228.295 339.218 231.046 343.503 233.588 346.475
C 236.445 349.816 239.345 353.122 242.19 356.472
C 243.718 358.27 245.677 360.274 246.852 362.297
C 243.285 361.67 239.125 362.272 235.496 362.255
C 234.306 362.249 232.358 362.652 231.318 362.063
C 227.447 358.194 223.931 353.883 220.247 349.831
C 218.938 348.391 217.223 345.572 215.242 345.135
C 214.201 345.892 212.82 346.646 212.176 347.819
C 211.535 348.983 211.706 350.787 211.638 352.091
C 211.466 355.368 211.432 358.651 211.361 361.93
C 210.566 362.417 208.763 362.103 207.853 362.095
C 205.054 362.069 202.2 361.778 199.408 361.972
C 198.837 359.534 199.25 356.504 199.243 354.001
C 199.228 348.501 199.249 343.001 199.24 337.501
C 199.21 320.095 199.297 302.681 199.216 285.278 Z"
opacity="1" fill="rgb(61,136,73)" fill-rule="evenodd" />
<path d="
M 259.003 240.803
C 261.642 242.23 263.87 245.008 265.961 247.118
C 272.303 253.517 278.934 261.586 280.131 270.845
C 280.41 273.005 281.051 276.334 280.244 278.395
C 278.428 281.969 275.994 285.53 272.815 288.013
C 265.075 294.06 254.47 293.82 246.734 287.826
C 244.562 286.143 241.883 283.694 240.837 281.093
C 240.47 280.012 239.789 279.055 239.54 277.93
C 239.159 276.21 239.418 274.155 239.545 272.409
C 240.191 263.495 245.439 256.232 250.933 249.526
C 252.553 247.548 254.209 245.631 255.909 243.723
C 256.829 242.69 257.731 241.387 259.003 240.803 Z"
opacity="1" fill="rgb(59,137,70)" fill-rule="evenodd" />
<path d="
M 248.83 317.814
C 251.759 317.765 254.69 317.736 257.62 317.748
C 258.825 317.752 260.354 317.486 261.494 317.861
C 261.996 324.349 261.375 331.18 261.4 337.712
C 261.412 340.793 261.012 344.751 262.614 347.506
C 265.062 351.712 270.603 352.158 274.937 351.475
C 277.068 351.14 279.785 350.06 280.643 347.858
C 281.67 345.223 280.95 341.279 280.904 338.495
C 280.796 331.882 280.412 325.062 280.858 318.464
C 281.768 317.615 283.297 317.859 284.503 317.865
C 287.388 317.879 290.306 317.668 293.185 317.859
C 293.635 320.263 293.237 323.05 293.232 325.5
C 293.222 330.667 293.233 335.834 293.238 341
C 293.251 354.868 295.751 376.34 278.636 381.433
C 274.275 382.731 269.801 382.765 265.292 382.781
C 261.904 382.793 257.476 383.483 254.203 382.689
C 254.262 378.945 253.763 374.981 254.212 371.271
C 258.984 371.184 263.881 371.559 268.631 370.994
C 270.596 370.76 272.72 370.847 274.532 369.916
C 277.82 368.226 279.435 364.832 279.872 361.321
C 278.186 361.027 275.685 362.136 273.932 362.304
C 269.619 362.715 264.95 362.575 260.782 361.291
C 245.716 356.649 248.6 337.731 248.795 325.496
C 248.836 322.945 248.963 320.361 248.83 317.814 Z"
opacity="1" fill="rgb(61,136,72)" fill-rule="evenodd" />
<path d="
M 258.934 240.064
C 292.018 202.477 335.078 171.676 381.788 153.493
C 393.293 149.015 405.061 145.177 417.152 142.619
C 422.631 141.46 428.413 140.034 434.036 139.996
C 433.763 140.897 431.428 141.523 430.648 141.95
C 427.47 143.694 424.397 145.619 421.306 147.513
C 409.343 154.84 398.147 163.236 386.868 171.544
C 359.566 191.653 334.967 215.689 311.924 240.475
C 304.284 248.693 297.158 257.436 289.959 266.038
C 287.818 268.598 285.683 271.261 283.667 273.921
C 282.595 275.337 281.609 277.261 280.244 278.395
C 281.051 276.334 280.41 273.005 280.131 270.845
C 278.934 261.586 272.303 253.517 265.961 247.118
C 263.87 245.008 261.642 242.23 259.003 240.803
C 258.923 240.32 258.947 240.566 258.934 240.064 Z"
opacity="1" fill="rgb(103,192,47)" fill-rule="evenodd" />
<path d="
M 301.463 376.9
C 304.7 376.601 308.146 376.58 310.845 378.677
C 315.175 382.041 314.433 388.88 309.756 391.493
C 307.316 392.856 304.133 392.519 301.454 392.388
C 300.779 391.528 301.32 389.097 301.331 387.992
C 301.364 384.559 301.777 380.526 300.931 377.193
C 301.108 377.095 301.286 376.997 301.463 376.9 Z
M 303.392 378.871
C 303.48 382.689 302.89 386.956 303.613 390.712
C 305.311 390.891 307.448 390.872 308.957 389.98
C 312.551 387.855 312.341 382.307 309.349 379.811
C 307.755 378.481 305.305 378.441 303.392 378.871 Z"
opacity="1" fill="rgb(78,79,84)" fill-rule="evenodd" />
<path d="
M 309.332 289.774
C 311.774 289.146 314.788 289.42 317.313 289.402
C 322.543 289.364 327.775 289.427 333.005 289.427
C 348.898 289.429 364.816 289.172 380.703 289.558
C 381.088 293.733 380.121 298.134 380.741 302.273
C 374.494 302.26 368.246 302.255 361.998 302.221
C 358.715 302.204 355.246 301.853 351.988 302.297
C 351.681 322.154 352.315 342.041 351.831 361.895
C 347.441 362.053 343.046 362.061 338.653 362.086
C 337.999 360.543 338.343 358.157 338.328 356.498
C 338.288 352.331 338.317 348.163 338.315 343.997
C 338.308 330.263 337.479 316.271 338.247 302.565
C 337.795 302.165 336.602 302.349 336.001 302.331
C 334.168 302.274 332.332 302.291 330.498 302.285
C 325.831 302.27 321.164 302.303 316.497 302.312
C 314.265 302.317 311.693 302.709 309.515 302.244
C 309.184 298.104 309.454 293.924 309.332 289.774 Z"
opacity="1" fill="rgb(60,135,70)" fill-rule="evenodd" />
<path d="
M 316.741 377.366
C 317.583 377.326 318.327 377.15 318.955 377.763
C 318.983 378.491 319.052 379.174 318.85 379.882
C 318.302 380.013 317.863 380.058 317.308 379.963
C 316.714 379.241 316.622 378.281 316.741 377.366 Z"
opacity="1" fill="rgb(61,72,71)" fill-rule="evenodd" />
<path d="
M 316.972 382.995
C 317.017 382.883 317.062 382.771 317.107 382.659
C 317.355 382.637 318.384 382.485 318.689 382.657
C 319.128 382.904 318.859 384.589 318.849 384.995
C 318.79 387.406 319.049 389.873 318.831 392.271
C 318.236 392.24 317.638 392.247 317.042 392.235
C 316.6 391.507 316.841 390.324 316.859 389.493
C 316.908 387.327 316.792 385.151 316.972 382.995 Z"
opacity="1" fill="rgb(89,88,90)" fill-rule="evenodd" />
<path d="
M 322.494 385.567
C 324.172 382.474 330.036 379.83 332.506 383.809
C 333.738 385.793 332.82 388.369 332.896 390.479
C 332.95 391.975 333.409 393.306 332.726 394.739
C 330.98 398.399 323.079 399.035 322.667 394.255
C 325.45 394.586 328.619 397.853 330.98 394.477
C 331.255 394.084 331.487 393.616 331.639 393.161
C 331.871 392.463 331.787 391.959 331.65 391.27
C 330.526 392.13 328.401 393.094 326.928 392.931
C 323.287 392.529 321.266 388.865 322.494 385.567 Z
M 323.961 386.587
C 323.806 387.32 323.826 387.945 323.916 388.685
C 324.919 392.4 330.057 391.696 331.03 388.317
C 331.874 385.389 329.33 382.909 326.438 383.925
C 325.171 384.371 324.547 385.477 323.961 386.587 Z"
opacity="1" fill="rgb(88,86,90)" fill-rule="evenodd" />
<path d="
M 335.923 382.414
C 335.993 382.309 336.064 382.204 336.134 382.099
C 336.474 382.109 337.769 381.95 337.96 382.471
C 338.165 383.026 337.863 384.349 337.859 384.995
C 337.847 387.346 338.071 389.863 337.75 392.19
C 337.237 392.269 336.748 392.218 336.231 392.197
C 335.317 389.316 335.719 385.396 335.923 382.414 Z"
opacity="0.996" fill="rgb(91,92,94)" fill-rule="evenodd" />
<path d="
M 336.371 377.912
C 337.03 377.857 337.845 377.71 338.413 378.07
C 338.447 378.661 338.471 379.167 338.202 379.707
C 336.855 380.529 335.263 379.405 336.371 377.912 Z"
opacity="0.996" fill="rgb(75,85,91)" fill-rule="evenodd" />
<path d="
M 340.899 382.438
C 341.412 382.241 342.061 382.297 342.509 381.982
C 342.763 380.704 342.214 379.283 342.321 377.964
C 343.069 377.918 343.605 377.912 344.303 378.198
C 344.672 379.543 344.638 380.723 344.276 382.067
C 345.773 382.825 347.907 381.449 347.733 384.204
C 346.691 384.164 345.691 383.874 344.664 384.115
C 344.383 386.234 344.643 388.37 344.485 390.497
C 344.436 391.161 344.706 391.733 344.382 392.346
C 340.446 392.464 343.957 386.038 342.491 384.053
C 341.938 383.969 341.41 383.818 340.86 383.732
C 340.73 382.951 340.744 383.383 340.899 382.438 Z"
opacity="1" fill="rgb(89,80,87)" fill-rule="evenodd" />
<path d="
M 349.451 387.104
C 350.079 384.487 352.407 381.425 355.517 381.925
C 356.629 382.103 357.399 383.471 358.423 383.492
C 358.902 383.083 359.053 382.451 359.323 381.897
C 361.895 382.003 360.82 388.137 360.836 389.978
C 360.843 390.765 361.072 391.851 360.718 392.578
C 358.992 393.19 359.192 392.313 358.572 391.14
C 357.6 391.733 356.617 392.564 355.459 392.719
C 352.115 393.167 349.386 390.37 349.451 387.104 Z
M 351.335 386.521
C 349.835 391.219 357.394 393.006 358.7 388.764
C 360.187 383.933 352.852 381.771 351.335 386.521 Z"
opacity="0.996" fill="rgb(77,74,83)" fill-rule="evenodd" />
<path d="
M 364.469 378.615
C 364.58 377.806 364.546 377.014 364.648 376.211
C 364.714 376.212 366.034 376.222 366.166 376.299
C 366.606 376.558 366.326 379.484 366.323 379.986
C 366.308 382.655 366.283 385.323 366.264 387.992
C 366.255 389.223 366.528 390.962 366.024 392.099
C 365.546 392.338 364.972 392.333 364.446 392.416
C 363.783 391.547 364.276 389.57 364.293 388.495
C 364.344 385.212 364.26 381.891 364.469 378.615 Z"
opacity="1" fill="rgb(90,69,72)" fill-rule="evenodd" />
<path d="
M 367.906 335.598
C 368.813 331.007 370.331 326.85 373.572 323.354
C 381.03 315.312 394.603 314.871 403.556 320.495
C 409.61 324.298 412.864 331.169 413.192 338.159
C 413.255 339.498 413.881 342.821 413.195 343.955
C 409.432 343.615 405.5 344.03 401.721 344.047
C 394.496 344.079 387.264 343.981 380.05 344.065
C 382.955 353.099 395.906 351.25 403.234 351.131
C 405.346 351.096 407.459 351.064 409.572 351.035
C 410.35 351.024 411.446 350.817 411.913 351.47
C 412.164 355.018 411.61 358.641 411.634 362.198
C 409.069 361.472 405.174 362.125 402.501 362.162
C 390.863 362.321 377.261 363.913 370.568 352.081
C 369.35 349.928 368.472 347.609 368.063 345.166
C 367.53 341.982 367.418 338.798 367.906 335.598 Z
M 379.977 334.078
C 379.667 334.832 379.767 334.458 379.653 335.194
C 384.897 334.831 390.264 334.941 395.517 335.111
C 396.784 335.152 398.047 335.152 399.314 335.166
C 399.617 335.17 400.755 335.336 400.943 335.045
C 399.718 332.419 398.026 330.028 395.323 328.76
C 389.783 326.161 382.649 328.683 379.977 334.078 Z"
opacity="1" fill="rgb(78,83,88)" fill-rule="evenodd" />
<path d="
M 375.909 379.571
C 377.432 376.495 384.717 374.916 385.379 379.51
C 385.87 382.915 382.736 378.509 381.646 378.299
C 379.954 377.974 377.382 378.874 377.836 380.987
C 378.266 382.984 380.463 383.351 382.087 383.833
C 384.636 384.59 386.579 386.05 386.417 388.952
C 386.296 391.118 383.811 392.61 381.854 392.681
C 378.66 392.797 375.748 391.117 375.752 387.765
C 377.58 388.022 377.84 389.783 379.48 390.588
C 381.369 391.515 385.502 390.882 384.765 387.985
C 384.462 386.794 383.153 386.212 382.133 385.797
C 379.978 384.92 376.703 384.164 375.804 381.69
C 375.708 380.945 375.749 380.305 375.909 379.571 Z"
opacity="1" fill="rgb(78,70,83)" fill-rule="evenodd" />
<path d="
M 388.939 386.57
C 389.449 384.877 390.534 383.032 392.325 382.5
C 395.493 381.558 400.441 383.799 399.78 387.716
C 397.384 387.3 393.037 387.512 390.758 388.341
C 391.358 390.232 393.532 391.989 395.61 391.138
C 396.546 390.755 398.1 389.27 399.083 389.976
C 398.093 392.614 394.094 393.508 391.734 392.241
C 389.497 391.039 388.698 388.998 388.939 386.57 Z
M 390.883 386.121
C 390.8 386.285 390.717 386.448 390.634 386.612
C 391.223 387.048 391.821 386.797 392.516 386.79
C 393.982 386.776 396.569 387.242 397.784 386.305
C 396.538 382.494 392.628 383.501 390.883 386.121 Z"
opacity="0.996" fill="rgb(81,76,88)" fill-rule="evenodd" />
<path d="
M 402.298 382.335
C 403.83 382.247 403.95 382.452 404.222 383.876
C 405.015 384.083 407.922 380.368 408.37 382.874
C 407.361 384.21 405.408 384.569 404.328 385.926
C 404.286 388.025 404.494 390.141 404.323 392.237
C 403.724 392.243 403.122 392.277 402.53 392.358
C 402.15 391.465 402.352 390.2 402.363 389.242
C 402.387 387.046 401.752 384.445 402.298 382.335 Z"
opacity="1" fill="rgb(85,77,89)" fill-rule="evenodd" />
<path d="
M 409.905 382.369
C 413.092 381.698 414.206 387.846 415.486 390.021
C 416.422 389.525 416.424 388.455 416.776 387.564
C 417.429 385.91 417.934 383.5 419.211 382.245
C 419.46 382.269 420.294 382.207 420.441 382.509
C 420.711 383.065 419.684 384.675 419.462 385.208
C 418.645 387.166 417.817 389.099 416.895 391.011
C 416.532 391.764 416.16 392.673 415.207 392.621
C 413.453 390.886 412.736 388.031 411.614 385.867
C 411.049 384.777 410.092 383.578 409.905 382.369 Z"
opacity="1" fill="rgb(86,69,78)" fill-rule="evenodd" />
<path d="
M 420.392 335.082
C 421.015 332.334 421.803 329.814 423.203 327.354
C 430.738 314.11 448.082 317.831 460.672 317.718
C 461.012 318.669 460.756 319.981 460.748 320.991
C 460.729 323.426 460.318 326.366 460.748 328.746
C 455.943 329.033 451.069 328.481 446.255 328.534
C 443.492 328.564 440.526 328.604 437.981 329.807
C 429.117 334.001 430.275 345.64 438.283 349.886
C 440.932 351.291 444.156 351.257 447.079 351.268
C 451.598 351.285 456.117 351.154 460.636 351.186
C 460.627 353.787 460.699 356.392 460.675 358.996
C 460.67 359.602 460.987 361.462 460.571 361.891
C 448.93 361.702 434.683 365.304 425.8 355.701
C 424.55 354.349 423.473 352.813 422.646 351.167
C 421.534 348.95 420.782 346.562 420.397 344.114
C 419.936 341.184 419.836 338.005 420.392 335.082 Z"
opacity="1" fill="rgb(78,83,86)" fill-rule="evenodd" />
<path d="
M 422.886 378.343
C 423.618 378.136 424.377 378.186 425.126 378.284
C 425.325 378.826 425.291 379.31 425.283 379.88
C 424.53 380.267 423.682 380.425 422.87 380.178
C 422.771 379.494 422.752 379.006 422.886 378.343 Z"
opacity="0.988" fill="rgb(91,92,90)" fill-rule="evenodd" />
<path d="
M 422.743 382.329
C 423.236 382.134 424.186 381.869 424.695 382.247
C 424.95 382.437 424.72 384.3 424.72 384.595
C 424.716 386.856 425.365 390.454 424.3 392.521
C 423.824 392.644 423.572 392.606 423.111 392.551
C 422.506 391.871 422.768 390.367 422.768 389.498
C 422.769 387.109 422.658 384.716 422.743 382.329 Z"
opacity="0.996" fill="rgb(92,90,92)" fill-rule="evenodd" />
<path d="
M 427.906 386.572
C 428.657 384.378 430.006 382.45 432.498 382.217
C 434.15 382.063 437.617 382.864 437.229 385.233
C 436.164 385.523 435.408 384.339 434.562 383.886
C 433.603 383.372 432.331 383.619 431.427 384.193
C 429.404 385.479 428.914 389.754 431.481 390.732
C 433.624 391.549 435.226 390.279 437.21 389.774
C 437.356 392.043 434.414 392.945 432.591 392.724
C 429.444 392.342 427.303 389.755 427.906 386.572 Z"
opacity="0.996" fill="rgb(81,76,84)" fill-rule="evenodd" />
<path d="
M 439.464 387.104
C 439.766 385.37 440.672 383.698 442.289 382.842
C 445.853 380.953 450.703 383.385 450.385 387.641
C 447.697 388.707 444.576 388.043 441.75 388.514
C 441.606 389.612 442.671 390.455 443.582 390.86
C 445.977 391.925 448.114 390.447 450.288 389.516
C 450.801 389.848 449.649 390.972 449.404 391.181
C 448.382 392.053 446.854 392.733 445.499 392.756
C 442.143 392.814 439.361 390.529 439.464 387.104 Z
M 441.891 386.062
C 441.832 386.28 441.773 386.497 441.714 386.715
C 442.051 387.255 442.744 387.031 443.321 387.047
C 444.805 387.087 447.065 387.298 448.441 386.796
C 448.975 385.389 446.659 383.868 445.474 383.8
C 443.797 383.704 442.812 384.836 441.891 386.062 Z"
opacity="0.996" fill="rgb(89,81,94)" fill-rule="evenodd" />
<path d="
M 452.819 384.519
C 453.945 382.124 457.109 381.58 459.365 382.926
C 460.196 383.423 461.412 384.978 460.338 385.855
C 459.804 385.809 459.247 384.993 458.821 384.674
C 457.523 383.701 453.477 383.056 454.523 385.913
C 455.652 386.332 456.769 386.755 457.916 387.143
C 458.603 387.375 459.376 387.602 460.026 387.918
C 461.517 388.644 461.145 390.886 460.196 391.889
C 458.22 393.977 452.885 392.989 452.935 389.846
C 455.163 389.091 456.147 392.957 458.847 391.118
C 459.322 390.637 459.47 389.832 459.156 389.24
C 456.898 387.817 452.015 388.231 452.819 384.519 Z"
opacity="0.996" fill="rgb(79,79,84)" fill-rule="evenodd" />
<path d="
M 468.37 284.791
C 471.111 284.748 473.853 284.753 476.594 284.752
C 477.825 284.752 479.26 284.514 480.444 284.874
C 480.07 289.864 480.403 294.998 480.398 300.005
C 480.391 306.459 480.133 312.994 480.412 319.437
C 483.562 317.718 486.656 317.009 490.252 316.989
C 492.664 316.975 495.124 317.29 497.451 317.926
C 499.249 318.418 501.059 319.113 502.629 320.122
C 512.285 326.33 511.233 337.503 511.244 347.573
C 511.249 352.305 511.569 357.165 511.22 361.881
C 510.399 362.354 508.173 362.018 507.22 361.976
C 504.653 361.865 502.037 361.985 499.467 361.978
C 499.082 355.515 499.295 348.976 499.285 342.502
C 499.28 338.815 499.714 334.821 497.647 331.551
C 494.534 326.627 483.474 325.941 480.955 331.841
C 479.684 334.818 480.286 338.837 480.3 341.999
C 480.318 346.499 480.357 351 480.338 355.499
C 480.329 357.5 480.003 359.757 480.286 361.726
C 476.424 362.025 472.464 361.912 468.591 361.883
C 467.731 355.273 468.44 348.171 468.431 341.497
C 468.414 328.998 468.412 316.499 468.412 303.999
C 468.412 297.642 468.822 291.128 468.37 284.791 Z"
opacity="1" fill="rgb(79,83,87)" fill-rule="evenodd" />

</svg>